<svg width="266" height="266" viewBox="0 0 266 266" fill="none" xmlns="http://www.w3.org/2000/svg">
<g clip-path="url(#clip0_5606_14769)">
<rect x="162.5" y="160.203" width="56" height="56" rx="28" transform="rotate(-0.170125 162.5 160.203)" fill="url(#paint0_radial_5606_14769)"/>
<path d="M175.314 201.944L175.232 174.387L190.542 174.341L190.56 180.465L205.87 180.42L205.934 201.854L175.314 201.944ZM178.367 198.873L187.553 198.846L187.543 195.784L178.358 195.811L178.367 198.873ZM178.348 192.749L187.534 192.722L187.525 189.66L178.339 189.688L178.348 192.749ZM178.33 186.626L187.516 186.598L187.507 183.536L178.321 183.564L178.33 186.626ZM178.312 180.502L187.498 180.474L187.489 177.412L178.303 177.44L178.312 180.502ZM190.615 198.837L202.862 198.801L202.817 183.491L190.569 183.527L190.615 198.837ZM193.649 189.642L193.64 186.58L199.764 186.562L199.773 189.624L193.649 189.642ZM193.667 195.766L193.658 192.704L199.782 192.686L199.791 195.748L193.667 195.766Z" fill="#3069CA"/>
<path d="M153.874 234.279L159.598 234.262L160.324 236.438L153.088 236.46L153.874 234.279ZM160.207 239.211L156.721 229.285L153.223 239.231L150.469 239.239L155.29 226.301L158.278 226.292L163.141 239.202L160.207 239.211ZM168.262 242.841C167.41 242.843 166.653 242.695 165.992 242.397C165.332 242.111 164.814 241.693 164.441 241.142C164.067 240.603 163.861 239.968 163.823 239.236L166.235 239.229C166.297 239.78 166.496 240.194 166.833 240.469C167.17 240.756 167.638 240.898 168.238 240.897C168.934 240.895 169.455 240.713 169.802 240.352C170.161 239.991 170.34 239.462 170.338 238.766L170.334 237.362C170.071 237.819 169.706 238.18 169.239 238.446C168.772 238.699 168.244 238.827 167.656 238.828C166.876 238.831 166.173 238.629 165.548 238.223C164.923 237.817 164.429 237.26 164.067 236.553C163.705 235.834 163.523 235.025 163.52 234.125C163.517 233.189 163.683 232.366 164.017 231.657C164.362 230.948 164.835 230.395 165.434 229.997C166.044 229.599 166.746 229.399 167.538 229.397C168.186 229.395 168.756 229.519 169.249 229.77C169.742 230.008 170.163 230.379 170.512 230.882L170.508 229.568L172.794 229.561L172.822 238.723C172.825 240.007 172.42 241.01 171.607 241.733C170.805 242.467 169.69 242.836 168.262 242.841ZM166.022 234.117C166.024 234.897 166.218 235.521 166.603 235.988C166.989 236.442 167.499 236.669 168.135 236.667C168.579 236.666 168.963 236.563 169.287 236.358C169.61 236.141 169.861 235.84 170.04 235.455C170.219 235.071 170.307 234.627 170.306 234.123C170.304 233.343 170.104 232.719 169.706 232.252C169.309 231.785 168.78 231.553 168.12 231.555C167.484 231.557 166.975 231.792 166.592 232.262C166.21 232.719 166.02 233.337 166.022 234.117ZM179.257 239.316C178.297 239.319 177.451 239.117 176.718 238.712C175.996 238.294 175.437 237.707 175.038 236.952C174.64 236.198 174.44 235.322 174.437 234.326C174.434 233.366 174.635 232.514 175.041 231.768C175.447 231.023 176.009 230.44 176.728 230.017C177.446 229.583 178.268 229.365 179.192 229.362C179.948 229.36 180.632 229.502 181.245 229.788C181.87 230.062 182.393 230.457 182.815 230.971C183.236 231.486 183.538 232.085 183.72 232.769C183.902 233.44 183.934 234.166 183.816 234.946L175.914 234.97L175.91 233.386L181.166 233.37C181.14 232.698 180.94 232.171 180.567 231.788C180.206 231.393 179.731 231.197 179.143 231.198C178.675 231.2 178.28 231.321 177.956 231.562C177.633 231.803 177.382 232.158 177.204 232.626C177.037 233.083 176.955 233.647 176.957 234.319C176.959 234.979 177.044 235.537 177.214 235.992C177.383 236.448 177.636 236.795 177.973 237.034C178.309 237.273 178.718 237.392 179.198 237.39C179.75 237.389 180.205 237.255 180.565 236.99C180.924 236.725 181.175 236.358 181.317 235.89L183.801 235.882C183.528 236.963 182.997 237.805 182.207 238.407C181.417 239.01 180.433 239.312 179.257 239.316ZM187.991 233.89L188.007 239.128L185.505 239.135L185.476 229.523L187.78 229.517L187.784 230.885C188.143 230.404 188.562 230.024 189.041 229.747C189.532 229.469 190.096 229.33 190.732 229.328C191.704 229.325 192.491 229.635 193.092 230.257C193.694 230.867 193.997 231.748 194 232.9L194.019 239.11L191.535 239.118L191.519 233.754C191.517 233.034 191.371 232.488 191.082 232.117C190.805 231.734 190.384 231.543 189.82 231.545C189.484 231.546 189.172 231.637 188.885 231.817C188.61 231.986 188.388 232.245 188.221 232.593C188.066 232.93 187.99 233.362 187.991 233.89ZM200.225 239.272C199.301 239.274 198.484 239.067 197.775 238.649C197.078 238.231 196.53 237.645 196.132 236.89C195.734 236.135 195.533 235.272 195.53 234.3C195.527 233.34 195.723 232.487 196.117 231.742C196.522 230.985 197.079 230.389 197.785 229.955C198.492 229.521 199.296 229.302 200.196 229.3C201.024 229.297 201.774 229.475 202.447 229.833C203.12 230.179 203.668 230.675 204.09 231.322C204.511 231.957 204.772 232.706 204.87 233.57L202.242 233.578C202.18 232.942 201.963 232.439 201.59 232.068C201.229 231.697 200.766 231.512 200.202 231.514C199.77 231.515 199.392 231.63 199.069 231.859C198.758 232.088 198.513 232.407 198.334 232.815C198.167 233.224 198.085 233.716 198.086 234.292C198.088 234.856 198.173 235.348 198.343 235.767C198.524 236.187 198.771 236.51 199.084 236.737C199.408 236.952 199.787 237.059 200.219 237.058C200.795 237.056 201.256 236.875 201.603 236.514C201.962 236.141 202.176 235.63 202.246 234.982L204.874 234.974C204.793 235.85 204.543 236.613 204.125 237.262C203.707 237.899 203.169 238.393 202.51 238.743C201.851 239.093 201.089 239.269 200.225 239.272ZM208.995 239.066L206.493 239.073L206.464 229.461L208.966 229.454L208.995 239.066ZM209.356 227.221C209.357 227.641 209.202 227.995 208.891 228.284C208.592 228.561 208.19 228.7 207.686 228.702C207.194 228.703 206.792 228.566 206.479 228.291C206.178 228.004 206.027 227.65 206.026 227.23C206.024 226.786 206.173 226.426 206.473 226.149C206.784 225.86 207.185 225.715 207.677 225.714C208.181 225.712 208.584 225.855 208.885 226.142C209.197 226.417 209.354 226.777 209.356 227.221ZM215.398 239.209C214.438 239.212 213.591 239.01 212.858 238.604C212.137 238.186 211.577 237.6 211.179 236.845C210.781 236.09 210.58 235.215 210.577 234.219C210.574 233.259 210.776 232.406 211.181 231.661C211.587 230.916 212.149 230.332 212.868 229.91C213.587 229.476 214.408 229.258 215.332 229.255C216.088 229.253 216.773 229.395 217.386 229.681C218.01 229.955 218.534 230.349 218.955 230.864C219.377 231.379 219.678 231.978 219.86 232.661C220.042 233.333 220.075 234.059 219.957 234.839L212.055 234.863L212.05 233.279L217.306 233.263C217.28 232.591 217.081 232.064 216.708 231.681C216.346 231.286 215.872 231.089 215.284 231.091C214.816 231.092 214.42 231.214 214.097 231.454C213.774 231.695 213.523 232.05 213.344 232.519C213.177 232.975 213.095 233.539 213.097 234.211C213.099 234.871 213.185 235.429 213.354 235.885C213.523 236.34 213.776 236.687 214.113 236.926C214.45 237.165 214.858 237.284 215.338 237.283C215.89 237.281 216.346 237.148 216.705 236.883C217.064 236.618 217.315 236.251 217.458 235.783L219.942 235.775C219.669 236.856 219.137 237.698 218.347 238.3C217.557 238.902 216.574 239.205 215.398 239.209ZM229.754 235.926C229.757 236.922 229.387 237.715 228.645 238.305C227.915 238.895 226.866 239.193 225.498 239.197C224.142 239.201 223.079 238.898 222.309 238.288C221.551 237.666 221.123 236.822 221.023 235.754L223.417 235.747C223.431 236.239 223.63 236.634 224.015 236.933C224.412 237.22 224.916 237.362 225.528 237.361C226.02 237.359 226.428 237.28 226.752 237.123C227.075 236.954 227.236 236.702 227.235 236.366C227.234 236.066 227.132 235.838 226.927 235.682C226.723 235.527 226.386 235.408 225.918 235.325L224.189 235.007C223.325 234.853 222.646 234.543 222.152 234.077C221.659 233.61 221.411 233.005 221.409 232.261C221.407 231.661 221.568 231.132 221.89 230.675C222.213 230.218 222.668 229.863 223.255 229.609C223.842 229.356 224.532 229.227 225.324 229.225C226.128 229.223 226.837 229.359 227.449 229.633C228.074 229.895 228.567 230.278 228.929 230.78C229.302 231.283 229.52 231.877 229.582 232.561L227.188 232.568C227.151 232.1 226.964 231.734 226.627 231.471C226.29 231.196 225.858 231.06 225.33 231.061C224.874 231.062 224.502 231.148 224.214 231.316C223.939 231.473 223.801 231.708 223.802 232.02C223.803 232.308 223.906 232.523 224.11 232.667C224.315 232.798 224.633 232.905 225.065 232.988L226.92 233.324C227.857 233.502 228.56 233.806 229.029 234.236C229.51 234.667 229.752 235.23 229.754 235.926Z" fill="#1F1F1F"/>
<rect x="41.8037" y="127.723" width="56" height="56" rx="28" transform="rotate(9 41.8037 127.723)" fill="url(#paint1_radial_5606_14769)"/>
<g clip-path="url(#clip1_5606_14769)">
<path d="M65.2273 166.279L69.8992 162.885C70.1439 162.707 70.3515 162.484 70.5219 162.216C70.6924 161.947 70.8035 161.65 70.8552 161.323C70.9586 160.67 70.8164 160.077 70.4284 159.543C70.0405 159.009 69.5201 158.69 68.8671 158.587C68.5022 158.529 68.1254 158.578 67.7366 158.733C67.3479 158.888 66.8643 159.175 66.2859 159.596C65.7949 158.967 65.4014 158.53 65.1053 158.287C64.8092 158.043 64.4884 157.894 64.1427 157.839C63.4897 157.735 62.8962 157.878 62.3623 158.266C61.8284 158.653 61.5097 159.174 61.4063 159.827C61.3546 160.153 61.3683 160.471 61.4475 160.778C61.5268 161.086 61.6553 161.362 61.8331 161.607L65.2273 166.279ZM75.4998 164.067L65.9559 171.001C65.689 171.195 65.4023 171.327 65.096 171.397C64.7897 171.466 64.4925 171.478 64.2044 171.432C63.9163 171.387 63.6374 171.284 63.3676 171.123C63.0977 170.962 62.8658 170.748 62.6719 170.481L54.1134 158.701C53.9356 158.457 53.8112 158.186 53.74 157.889C53.6689 157.592 53.6577 157.29 53.7064 156.983L55.0158 148.715C55.1162 148.082 55.4278 147.575 55.9506 147.195C56.4734 146.815 57.0517 146.675 57.6855 146.776L65.9532 148.085C66.2605 148.134 66.5483 148.243 66.8166 148.414C67.0849 148.584 67.308 148.792 67.4858 149.037L76.0154 160.812C76.2094 161.079 76.3364 161.365 76.3964 161.67C76.4564 161.974 76.4635 162.271 76.4179 162.559C76.3723 162.847 76.2746 163.122 76.1249 163.384C75.9751 163.645 75.7668 163.873 75.4998 164.067ZM64.5694 169.128L74.1133 162.194L65.5594 150.385L57.3205 149.08L56.0155 157.319L64.5694 169.128ZM59.4712 154.146C59.9513 154.222 60.386 154.119 60.7754 153.836C61.1647 153.553 61.3974 153.171 61.4734 152.691C61.5494 152.211 61.446 151.776 61.1632 151.387C60.8803 150.998 60.4988 150.765 60.0187 150.689C59.5386 150.613 59.1039 150.716 58.7145 150.999C58.3252 151.282 58.0925 151.664 58.0165 152.144C57.9404 152.624 58.0439 153.059 58.3267 153.448C58.6096 153.837 58.9911 154.07 59.4712 154.146Z" fill="#4E3EB4"/>
</g>
<path d="M38.4329 203.329C38.2471 204.502 37.6927 205.356 36.7697 205.89C35.8587 206.426 34.6979 206.583 33.2875 206.359L28.2918 205.568L30.3135 192.803L35.1137 193.563C36.453 193.776 37.4609 194.239 38.1375 194.954C38.8277 195.658 39.0865 196.556 38.9138 197.646C38.8218 198.227 38.5792 198.723 38.186 199.135C37.8046 199.548 37.306 199.858 36.6902 200.064C37.3619 200.426 37.848 200.885 38.1484 201.443C38.4507 201.989 38.5455 202.618 38.4329 203.329ZM34.5625 195.663L32.4291 195.325L31.9588 198.294L34.0922 198.632C34.7559 198.737 35.2744 198.686 35.6475 198.477C36.0226 198.257 36.2467 197.916 36.3199 197.454C36.3913 197.004 36.2816 196.622 35.9911 196.308C35.7024 195.983 35.2262 195.768 34.5625 195.663ZM33.9471 200.814L31.6181 200.445L31.0831 203.823L33.4121 204.192C34.1469 204.308 34.7224 204.242 35.1387 203.992C35.5667 203.744 35.823 203.353 35.9075 202.82C35.9882 202.31 35.8624 201.877 35.5301 201.521C35.2096 201.166 34.6819 200.931 33.9471 200.814ZM42.7897 203.144L42.0604 207.749L39.5892 207.357L41.0929 197.864L43.3685 198.224L43.0785 200.055C43.5298 199.507 44.1205 199.115 44.8505 198.878C45.5805 198.641 46.3248 198.583 47.0833 198.703L46.6778 201.263C45.9979 201.107 45.3819 201.046 44.8298 201.08C44.2914 201.104 43.844 201.282 43.4876 201.614C43.1331 201.935 42.9005 202.445 42.7897 203.144ZM52.5 209.402L52.6858 208.229C52.3082 208.619 51.8636 208.894 51.3519 209.056C50.8422 209.206 50.2614 209.23 49.6095 209.127C48.6258 208.971 47.8739 208.578 47.3539 207.949C46.8339 207.32 46.6443 206.561 46.7851 205.672C46.9315 204.748 47.4106 204.101 48.2224 203.731C49.0342 203.362 50.1276 203.286 51.5024 203.504C51.775 203.547 52.0339 203.6 52.2791 203.663C52.5261 203.714 52.789 203.78 53.0678 203.861L53.1579 203.292C53.2424 202.759 53.1659 202.321 52.9284 201.98C52.6908 201.638 52.3113 201.427 51.7898 201.344C51.2565 201.259 50.8122 201.341 50.4572 201.588C50.1021 201.836 49.8586 202.223 49.7267 202.748L47.5044 202.396C47.6682 201.669 47.9642 201.066 48.3924 200.587C48.8343 200.098 49.3691 199.752 49.9968 199.547C50.6363 199.345 51.3354 199.304 52.0939 199.424C53.3384 199.621 54.2528 200.1 54.8369 200.861C55.433 201.623 55.639 202.585 55.455 203.747L54.5089 209.72L52.5 209.402ZM49.1253 205.97C49.0634 206.361 49.144 206.696 49.3672 206.974C49.6023 207.254 49.9509 207.431 50.4132 207.504C51.0413 207.604 51.5585 207.522 51.9648 207.258C52.3848 206.984 52.6379 206.575 52.7243 206.03L52.8313 205.354C52.5543 205.262 52.3042 205.192 52.0809 205.144C51.8595 205.085 51.6421 205.038 51.4287 205.004C50.7413 204.896 50.2029 204.92 49.8136 205.077C49.4242 205.234 49.1948 205.532 49.1253 205.97ZM59.929 205.276L59.1096 210.449L56.6384 210.058L58.1421 200.564L60.4177 200.924L60.2037 202.276C60.6344 201.858 61.1083 201.55 61.6256 201.353C62.1547 201.157 62.7334 201.109 63.3615 201.208C64.3216 201.361 65.0491 201.792 65.5441 202.502C66.041 203.2 66.1993 204.118 66.0191 205.256L65.0476 211.39L62.5942 211.001L63.4333 205.703C63.546 204.992 63.4891 204.43 63.2629 204.018C63.0503 203.595 62.6656 203.34 62.1085 203.252C61.7766 203.199 61.4544 203.239 61.1418 203.372C60.8429 203.495 60.5833 203.715 60.3629 204.032C60.1563 204.34 60.0116 204.754 59.929 205.276ZM67.3066 206.881C67.4549 205.945 67.76 205.131 68.222 204.439C68.6958 203.748 69.2806 203.239 69.9764 202.912C70.684 202.587 71.4585 202.491 72.3 202.624C72.869 202.714 73.3717 202.915 73.8082 203.228C74.2448 203.54 74.6042 203.955 74.8866 204.474L75.599 199.976L78.0524 200.364L76.0306 213.129L73.7728 212.772L73.9896 211.403C73.5334 211.828 73.0288 212.137 72.476 212.329C71.935 212.523 71.3564 212.571 70.7401 212.473C69.8986 212.34 69.1916 212.009 68.6191 211.481C68.0604 210.943 67.6624 210.273 67.4251 209.47C67.1997 208.669 67.1602 207.806 67.3066 206.881ZM69.8489 207.284C69.7081 208.173 69.8204 208.883 70.1857 209.415C70.551 209.947 71.0359 210.26 71.6404 210.356C72.0552 210.422 72.4454 210.374 72.8111 210.214C73.1886 210.055 73.51 209.79 73.7753 209.419C74.0425 209.036 74.223 208.548 74.3169 207.955C74.4108 207.363 74.3829 206.848 74.2334 206.411C74.0958 205.976 73.871 205.631 73.5592 205.375C73.2593 205.121 72.9078 204.962 72.5048 204.898C71.9004 204.802 71.3423 204.951 70.8305 205.344C70.3206 205.725 69.9934 206.371 69.8489 207.284ZM86.736 211.708C86.5802 212.692 86.0888 213.416 85.262 213.88C84.447 214.347 83.364 214.473 82.0128 214.259C80.6735 214.047 79.6725 213.578 79.0097 212.854C78.3606 212.119 78.0722 211.217 78.1444 210.147L80.5089 210.522C80.4438 211.009 80.5775 211.431 80.9098 211.788C81.2559 212.134 81.7311 212.355 82.3356 212.451C82.8215 212.528 83.2367 212.515 83.5811 212.411C83.9274 212.296 84.1269 212.073 84.1794 211.741C84.2263 211.444 84.1613 211.203 83.9842 211.017C83.8071 210.831 83.494 210.66 83.0449 210.504L81.3889 209.914C80.5599 209.624 79.9391 209.21 79.5263 208.671C79.1136 208.132 78.9654 207.495 79.0818 206.76C79.1757 206.167 79.4183 205.671 79.8096 205.272C80.201 204.872 80.7067 204.594 81.3269 204.437C81.9471 204.28 82.6483 204.263 83.4306 204.387C84.2247 204.513 84.9024 204.76 85.4637 205.128C86.0387 205.487 86.4645 205.943 86.7413 206.497C87.0298 207.053 87.1503 207.673 87.1025 208.358L84.738 207.984C84.7757 207.516 84.6492 207.125 84.3586 206.812C84.0699 206.487 83.6649 206.283 83.1434 206.2C82.693 206.129 82.3124 206.154 82.0017 206.275C81.7047 206.386 81.5318 206.595 81.4829 206.903C81.4379 207.188 81.5049 207.417 81.6838 207.591C81.8647 207.754 82.1618 207.91 82.5754 208.061L84.3531 208.688C85.2494 209.013 85.8949 209.425 86.2895 209.924C86.696 210.426 86.8448 211.021 86.736 211.708Z" fill="#1F1F1F"/>
<g clip-path="url(#clip2_5606_14769)">
<path d="M160.301 77.4147C162.151 72.5547 162.027 67.7879 159.93 63.1142C157.833 58.4405 154.354 55.179 149.494 53.3295L151.391 48.3449C154.507 49.5305 157.199 51.2329 159.47 53.4521C161.74 55.6713 163.499 58.1715 164.747 60.9528C165.995 63.7341 166.693 66.7103 166.842 69.8816C166.99 73.0529 166.471 76.1962 165.286 79.3116L160.301 77.4147ZM150.332 73.621C151.122 71.544 151.067 69.502 150.167 67.4949C149.266 65.4878 147.777 64.0891 145.701 63.2987L147.597 58.3141C151.045 59.6261 153.522 61.9595 155.027 65.3142C156.532 68.6689 156.629 72.0702 155.317 75.5178L150.332 73.621ZM154.133 100.746C148.941 98.7705 144.242 95.6864 140.035 91.4941C135.829 87.3018 132.439 82.3383 129.866 76.6037C127.293 70.8692 125.839 65.0373 125.504 59.1081C125.168 53.1789 125.989 47.6182 127.965 42.4259C128.249 41.6782 128.735 41.15 129.424 40.8412C130.112 40.5324 130.83 40.5203 131.577 40.8048L141.671 44.646C142.253 44.8673 142.697 45.2622 143.004 45.8307C143.31 46.3992 143.403 46.9692 143.28 47.5409L141.581 56.8804C141.411 57.5766 141.177 58.1295 140.878 58.539C140.58 58.9485 140.201 59.2562 139.742 59.462L131.375 63.2682C131.621 65.1213 132.042 66.9817 132.639 68.8495C133.236 70.7172 133.967 72.5766 134.832 74.4274C135.629 76.2051 136.525 77.9131 137.518 79.5513C138.512 81.1895 139.624 82.7659 140.855 84.2804L148.94 80.6524C149.456 80.4208 150.051 80.3261 150.725 80.3684C151.398 80.4107 152.01 80.584 152.56 80.8884L160.494 85.9051C161.012 86.2926 161.376 86.7755 161.583 87.354C161.791 87.9324 161.793 88.4916 161.587 89.0316L157.746 99.1254C157.461 99.8731 156.975 100.401 156.287 100.71C155.599 101.019 154.881 101.031 154.133 100.746ZM130.809 57.6318L136.486 55.0844L137.656 48.8244L132.11 46.7142C131.67 48.4963 131.321 50.2892 131.062 52.093C130.804 53.8968 130.719 55.7431 130.809 57.6318ZM144.627 88.4265C145.978 89.7491 147.416 90.9382 148.94 91.9938C150.464 93.0494 152.054 93.9635 153.71 94.7362L155.796 89.2532L150.39 85.8405L144.627 88.4265Z" fill="#8433DA"/>
<path d="M160.301 77.4147C162.151 72.5547 162.027 67.7879 159.93 63.1142C157.833 58.4405 154.354 55.179 149.494 53.3295L151.391 48.3449C154.507 49.5305 157.199 51.2329 159.47 53.4521C161.74 55.6713 163.499 58.1715 164.747 60.9528C165.995 63.7341 166.693 66.7103 166.842 69.8816C166.99 73.0529 166.471 76.1962 165.286 79.3116L160.301 77.4147ZM150.332 73.621C151.122 71.544 151.067 69.502 150.167 67.4949C149.266 65.4878 147.777 64.0891 145.701 63.2987L147.597 58.3141C151.045 59.6261 153.522 61.9595 155.027 65.3142C156.532 68.6689 156.629 72.0702 155.317 75.5178L150.332 73.621ZM154.133 100.746C148.941 98.7705 144.242 95.6864 140.035 91.4941C135.829 87.3018 132.439 82.3383 129.866 76.6037C127.293 70.8692 125.839 65.0373 125.504 59.1081C125.168 53.1789 125.989 47.6182 127.965 42.4259C128.249 41.6782 128.735 41.15 129.424 40.8412C130.112 40.5324 130.83 40.5203 131.577 40.8048L141.671 44.646C142.253 44.8673 142.697 45.2622 143.004 45.8307C143.31 46.3992 143.403 46.9692 143.28 47.5409L141.581 56.8804C141.411 57.5766 141.177 58.1295 140.878 58.539C140.58 58.9485 140.201 59.2562 139.742 59.462L131.375 63.2682C131.621 65.1213 132.042 66.9817 132.639 68.8495C133.236 70.7172 133.967 72.5766 134.832 74.4274C135.629 76.2051 136.525 77.9131 137.518 79.5513C138.512 81.1895 139.624 82.7659 140.855 84.2804L148.94 80.6524C149.456 80.4208 150.051 80.3261 150.725 80.3684C151.398 80.4107 152.01 80.584 152.56 80.8884L160.494 85.9051C161.012 86.2926 161.376 86.7755 161.583 87.354C161.791 87.9324 161.793 88.4916 161.587 89.0316L157.746 99.1254C157.461 99.8731 156.975 100.401 156.287 100.71C155.599 101.019 154.881 101.031 154.133 100.746ZM130.809 57.6318L136.486 55.0844L137.656 48.8244L132.11 46.7142C131.67 48.4963 131.321 50.2892 131.062 52.093C130.804 53.8968 130.719 55.7431 130.809 57.6318ZM144.627 88.4265C145.978 89.7491 147.416 90.9382 148.94 91.9938C150.464 93.0494 152.054 93.9635 153.71 94.7362L155.796 89.2532L150.39 85.8405L144.627 88.4265Z" fill="url(#paint2_linear_5606_14769)"/>
</g>
<path d="M68.2903 121.893C68.2903 121.893 81.9734 107.581 93.2754 111.17C109.181 116.22 119.747 91.0634 119.747 91.0634" stroke="#A049FC" stroke-opacity="0.6" stroke-dasharray="4 4"/>
<path d="M171.15 102.208C171.15 102.208 183.03 118.049 177.64 128.611C170.055 143.476 193.144 158.016 193.144 158.016" stroke="#A049FC" stroke-opacity="0.6" stroke-dasharray="4 4"/>
</g>
<defs>
<radialGradient id="paint0_radial_5606_14769" cx="0" cy="0" r="1" gradientUnits="userSpaceOnUse" gradientTransform="translate(221.5 95.2034) rotate(104.912) scale(120.466 164.292)">
<stop stop-color="#FBFBFB"/>
<stop offset="1" stop-color="#CBD7F6"/>
</radialGradient>
<radialGradient id="paint1_radial_5606_14769" cx="0" cy="0" r="1" gradientUnits="userSpaceOnUse" gradientTransform="translate(100.804 62.7234) rotate(104.912) scale(120.466 164.292)">
<stop stop-color="#FBFBFB"/>
<stop offset="1" stop-color="#DFDCF4"/>
</radialGradient>
<linearGradient id="paint2_linear_5606_14769" x1="133.139" y1="31.2807" x2="166.838" y2="113.046" gradientUnits="userSpaceOnUse">
<stop offset="1" stop-color="#50099B"/>
<stop stop-color="#A049FC"/>
</linearGradient>
<clipPath id="clip0_5606_14769">
<rect width="232" height="232" fill="white" transform="translate(36.5742 0.281738) rotate(9)"/>
</clipPath>
<clipPath id="clip1_5606_14769">
<rect width="28" height="28" fill="white" transform="translate(53.4413 143.741) rotate(9)"/>
</clipPath>
<clipPath id="clip2_5606_14769">
<rect width="64" height="64" fill="white" transform="translate(124.329 29.4867) rotate(20.8342)"/>
</clipPath>
</defs>
</svg>
