<svg width="88" height="32" viewBox="0 0 88 32" fill="none" xmlns="http://www.w3.org/2000/svg">
<g clip-path="url(#clip0_6018_151418)">
<path d="M28.1426 2.47113L21.1508 13.8391L14.1031 2.47113H6.99951V29.5751H14.1591V14.6231L21.1508 25.2631L28.1426 14.6231V29.5751H35.3021V2.47113H28.1426Z" fill="#515151"/>
<path d="M51.4109 13.0878C47.3836 11.9118 45.6496 11.5198 45.6496 10.0078C45.6496 8.94384 46.6565 8.15984 48.8379 8.15984C51.1871 8.21584 53.4804 9.05584 55.3262 10.5678L58.5704 5.35984C55.55 3.11984 52.0261 1.94384 48.3904 1.99984C42.1817 1.99984 38.2664 5.69584 38.2664 10.6238C38.2664 15.4398 42.0699 17.4558 45.7056 18.5198C49.5091 19.6398 51.9702 19.9758 51.9702 21.7678C51.9702 22.8878 50.9074 23.8958 48.782 23.8958C45.7615 23.7278 42.9089 22.4958 40.7275 20.4798L37.2036 25.8558C40.3919 28.5998 44.475 30.0558 48.726 29.9998C54.9906 29.9998 59.2975 26.4158 59.2975 20.9278C59.2416 16.0558 55.3262 14.2078 51.4109 13.0878Z" fill="#515151"/>
<path d="M68.7782 23.3031V2.47113H61.6187V29.5751H81.3074V23.3031H68.7782Z" fill="#515151"/>
</g>
<defs>
<clipPath id="clip0_6018_151418">
<rect width="74.3363" height="28" fill="white" transform="translate(7 2)"/>
</clipPath>
</defs>
</svg>
