<svg width="98" height="32" viewBox="0 0 98 32" fill="none" xmlns="http://www.w3.org/2000/svg">
<g clip-path="url(#clip0_6018_151431)">
<path d="M31.7087 4.10402C32.6079 2.37763 29.6946 2.86317 29.6946 2.86317C28.6516 2.86317 28.184 4.12201 27.9682 4.48167L24.8211 10.6859C24.2277 11.711 22.2675 16.0989 21.6201 17.07C21.5662 16.0809 21.6381 14.1027 21.6561 13.6352C21.7819 11.7649 21.9078 10.3442 22.1056 8.63581C22.2495 7.30505 22.5372 5.81244 22.2675 4.48167C22.0877 3.65444 21.8179 3.60049 20.631 3.47461C19.3902 3.34872 18.545 5.14705 18.1313 5.99227C16.6207 9.12136 14.9303 12.1785 13.5816 15.3796C13.1859 16.3147 12.7004 17.2498 12.2868 18.167C11.8012 19.2819 11.3516 20.3789 10.8301 21.4759C10.2726 22.6268 8.52826 26.4033 8.04271 27.5902C7.50321 28.885 7.39531 29.928 9.5533 29.8741C9.89499 29.8741 10.6503 29.946 11.5854 28.939C12.3227 28.1477 12.4666 27.4104 12.8982 26.3134C14.4448 22.429 15.5417 19.8574 17.2322 16.009C17.394 15.6313 17.7717 14.5343 18.1493 13.6891C18.1313 14.894 17.9335 16.3327 17.8436 17.2858C17.5559 20.7745 17.3581 24.1374 17.0523 27.5902C17.0164 28.0578 16.8905 28.6153 17.1063 29.0469C17.3221 29.4785 17.8616 29.5864 18.2932 29.6403C20.0196 29.8561 20.1994 28.9929 20.7389 27.806C21.2245 26.745 21.5122 25.8818 21.9438 24.8028C23.2746 21.4759 24.6773 18.1849 26.2238 14.948C26.6195 14.1207 27.0151 13.3115 27.4467 12.5022C28.238 11.0096 28.8854 9.60691 29.7486 7.95245C30.396 6.76555 31.0254 5.4168 31.7087 4.10402ZM90.9637 13.4733C90.7659 11.4772 88.0324 12.4842 86.396 12.79C85.7845 12.8979 83.8963 13.2575 81.7203 13.6711C81.6304 11.4232 81.6664 11.8728 81.6484 10.5061C81.5944 8.52791 81.4865 6.98135 81.3786 5.23697C81.3067 4.13999 81.1448 2.61141 79.1667 2.89914C76.8648 3.22284 76.4872 4.37377 75.8757 5.75849C74.2752 9.37313 74.3292 9.39111 72.5128 13.4194C72.369 13.7251 71.7036 15.3436 71.5957 15.6673C71.5238 15.6853 71.3799 15.7212 71.2001 15.7752C70.4628 15.937 69.5636 16.1349 68.5745 16.3507L68.5925 16.2607C68.8263 14.4264 69.114 12.5921 69.3658 10.7578C69.5996 9.0854 69.8513 6.35194 70.0491 4.67949C70.2649 2.88116 68.1789 2.91712 68.1789 2.91712C66.9021 2.84519 66.4165 3.22284 65.6073 4.26587C64.2225 6.0642 62.5501 8.0064 61.0755 9.98456C58.396 13.5632 56.4358 16.2607 54.008 19.8574C53.3067 20.9004 52.2277 22.483 51.2925 23.7238C50.6631 22.483 50.1236 21.1162 49.6021 19.8574C48.8468 18.0591 48.2893 16.9441 47.9297 15.7572C47.606 14.7142 48.0016 14.5703 48.7749 13.9769C51.0048 12.2864 53.5225 11.1175 55.8064 9.49901C57.4249 8.34808 59.3671 7.07127 60.9496 5.88437C60.9496 5.88437 61.8667 5.34487 62.3703 4.6615C62.9997 3.79831 61.2193 2.89914 61.2193 2.89914C60.2123 2.73729 59.6548 2.97107 58.9534 3.29477C58.2341 3.61847 57.299 4.35579 56.6875 4.84134C55.3388 5.88437 53.6304 7.12522 52.2996 8.16825C50.6631 9.44506 49.5482 10.2363 47.7498 11.2973L52.3176 4.46369C53.8102 2.53948 49.8539 1.99998 48.3433 4.03209C46.9406 5.8484 45.9875 7.44892 44.8905 9.10338C42.2469 13.0417 40.071 17.1779 37.895 21.5119C37.0678 23.1663 36.2585 24.8927 35.5032 26.6011C35.1435 27.4284 34.0825 29.3346 35.5392 29.5324C38.6503 29.928 39.1538 28.4534 39.8552 26.6731C41.0061 23.7418 41.3838 23.2023 42.1211 21.386C42.8404 19.6236 43.3619 18.6165 44.1712 17.1059C44.1891 17.088 44.4229 16.7103 44.4229 16.7103C44.5668 17.016 45.5199 20.1811 45.6458 20.5408C46.2932 22.2492 47.4261 26.2415 48.0735 28.0578C48.5411 29.5684 48.667 30 50.6991 29.946C51.7062 29.928 52.1378 29.5324 52.8032 28.2736C53.4685 27.0147 56.3459 21.6557 56.3459 21.6557C57.2091 21.5119 58.4499 21.2961 59.2592 21.1522C59.403 21.1342 59.7267 21.0623 60.1763 20.9724C60.482 20.9364 60.7338 20.8824 60.9316 20.8285C60.9496 20.8285 60.9496 20.8285 60.9676 20.8105C61.7588 20.6487 62.7659 20.4508 63.8629 20.235C63.6651 21.2241 63.0536 23.4001 62.9277 23.9576C62.9277 23.9576 61.597 29.1368 63.3234 29.4065C64.4024 29.5684 64.9599 29.3885 64.9599 29.3885C66.974 29.1548 67.01 26.4393 67.01 26.4393L68.1069 19.4078C68.8982 19.246 69.6895 19.0841 70.4627 18.9402L68.089 26.9608C67.7473 28.0937 67.4955 29.5504 69.5276 29.5504C71.1821 29.6403 71.29 28.5973 71.29 28.5973C71.326 28.4354 72.6387 24.2094 72.9624 22.6988C73.1782 21.7277 73.9515 19.228 74.2572 18.2209C75.1204 18.0591 75.7678 17.9332 76.0735 17.8792C76.4332 17.8253 77.1346 17.6994 78.0517 17.5555C78.0337 18.4907 78.0517 19.7855 78.0697 19.9653C78.2675 22.8067 78.0517 25.7559 78.6452 28.5433C78.7351 28.9929 78.9149 29.5684 79.4904 29.5684C80.1737 29.5684 80.3895 29.4964 81.1089 29.4425C83.1949 29.2627 82.8173 27.1586 82.6914 25.8278C82.5475 24.3532 82.4037 23.1124 82.2058 21.6377C82.044 20.4329 81.9361 18.8503 81.9181 16.9441V16.9081C85.3349 16.3327 89.0215 15.7033 89.561 15.6133C90.4242 15.3796 91.1435 15.4515 90.9637 13.4733ZM64.2585 17.2498C64.2585 17.2678 64.2405 17.2678 64.2405 17.2858C61.8487 17.8073 59.6008 18.3108 58.342 18.5986C59.6008 16.4945 65.1397 8.83363 65.9849 7.93447C65.5173 10.3083 64.762 14.7142 64.2585 17.2498ZM78.0697 14.2286V14.3545C76.9188 14.5703 75.8398 14.7861 74.9766 14.948C76.0735 12.1066 77.2245 8.61783 77.9078 6.85547C77.8539 8.16825 78.1236 12.9338 78.0697 14.2286ZM44.5308 5.75849C44.8905 5.0931 45.6997 3.78032 44.6927 3.27679C44.0992 2.98906 43.308 2.80923 42.6965 3.11494C42.193 3.38469 41.8153 3.90621 41.5636 4.39176L37.7152 10.4521C37.0857 11.3153 36.4923 12.3943 35.2155 12.5382C34.3703 12.6281 33.7588 12.2684 33.7768 11.5131C33.7948 10.7399 34.2444 9.71481 34.5861 9.04943C35.5931 7.1432 35.719 6.4958 36.6901 4.60756C37.6252 2.79124 34.5681 2.37763 33.8128 3.69041C33.2733 4.62554 32.2302 6.3879 31.9965 6.98135C31.5649 8.06035 28.3279 13.2036 29.7306 15.2357C31.5289 17.5375 36.3125 13.9049 33.8667 18.095C31.8886 21.4579 30.6477 23.3821 28.9213 26.4932C28.5437 27.1586 28.0761 27.824 27.9502 28.6153C27.7704 29.7302 29.299 29.7122 29.9644 29.6763C31.1333 29.5864 31.6907 29.0469 32.1583 27.9858C32.4101 27.4284 32.7518 26.745 33.0035 26.1875C35.2694 21.2421 37.6792 16.9441 40.6644 12.1605C42.0851 9.89464 43.3439 7.95245 44.5308 5.75849Z" fill="#515151"/>
</g>
<defs>
<clipPath id="clip0_6018_151431">
<rect width="84" height="28" fill="white" transform="translate(7 2)"/>
</clipPath>
</defs>
</svg>
