<svg width="184" height="32" viewBox="0 0 184 32" fill="none" xmlns="http://www.w3.org/2000/svg">
<g clip-path="url(#clip0_6022_151460)">
<path d="M18.2026 21.174C18.4529 21.7639 18.3706 22.5211 18.2446 22.9843C18.0347 23.7838 17.492 24.6255 15.903 24.6255C14.3995 24.6255 13.4806 23.7415 13.4806 22.4366V20.0804H7V21.9329C7 27.3587 11.2214 29 15.7786 29C20.126 29 23.7207 27.4855 24.3053 23.4474C24.5976 21.343 24.3893 19.9975 24.2634 19.4499C23.2621 14.3587 14.1056 12.8442 13.395 10.0249C13.2707 9.52112 13.3127 9.01737 13.353 8.76388C13.521 8.00662 14.0636 7.12262 15.5687 7.12262C16.9898 7.12262 17.8263 8.00663 17.8263 9.30988V10.826H23.8467V9.10025C23.8467 3.7995 19.1231 3 15.6947 3C11.3893 3 7.91888 4.43 7.25031 8.38525C7.08397 9.47888 7.04037 10.4474 7.2923 11.6677C8.37913 16.5882 16.9494 18.0199 18.2026 21.174ZM96.5805 21.1334C96.8308 21.7216 96.7468 22.4789 96.6225 22.8997C96.4125 23.6993 95.8699 24.4987 94.2809 24.4987C92.7758 24.4987 91.8989 23.6147 91.8989 22.3099V19.9975H85.5038V21.8484C85.5038 27.1914 89.6832 28.831 94.1969 28.831C98.5038 28.831 102.057 27.3587 102.643 23.3206C102.934 21.2585 102.724 19.8707 102.599 19.3654C101.596 14.3165 92.5255 12.8443 91.8569 10.0265C91.7309 9.52113 91.7729 9.01575 91.8149 8.76388C91.9829 8.00662 92.4835 7.16487 93.9886 7.16487C95.3677 7.16487 96.2042 8.04888 96.2042 9.35213V10.826H102.181V9.1425C102.181 3.92625 97.4994 3.0845 94.1145 3.0845C89.8915 3.0845 86.4227 4.5145 85.7542 8.4275C85.5862 9.47888 85.5442 10.4474 85.7961 11.6661C86.883 16.5899 95.3677 18.0199 96.5805 21.1334ZM146.617 23.2784L146.282 3.75725H152.259V27.7374H143.649L137.588 7.58575L137.922 27.7374H131.986V3.75725H140.932L146.617 23.2784ZM38.2242 5.52363L34.8814 27.9909H28.3604L32.7917 3.75725H43.534L47.9653 27.9909H41.4863L38.2242 5.52363ZM73.4227 5.52363L69.2417 27.9925H63.139L59.0016 5.52363L58.8337 27.9909H52.8149L53.3155 3.75725H63.139L66.1912 22.6885L69.2434 3.75725H79.0652L79.6094 27.9909H73.5891L73.4227 5.52363ZM116.812 24.3736C118.483 24.3736 119.028 23.1939 119.112 22.6056C119.154 22.3521 119.154 21.9735 119.154 21.6794V3.715H125.256V21.135C125.256 21.5965 125.214 22.4805 125.214 22.7324C124.796 27.2775 121.242 28.7498 116.812 28.7498C112.381 28.7498 108.828 27.2775 108.41 22.7324C108.368 22.4805 108.326 21.5965 108.368 21.135V3.715H114.472V21.6794C114.472 21.9735 114.472 22.3521 114.512 22.6056C114.638 23.2361 115.141 24.3736 116.812 24.3736ZM167.141 24.1201C168.896 24.1201 169.482 22.9826 169.607 22.3521C169.649 22.0596 169.691 21.7216 169.649 21.4259V17.8931H167.183V14.3587H175.709V20.8799C175.709 21.343 175.709 21.6794 175.627 22.4789C175.209 26.8972 171.404 28.4524 167.141 28.4524C162.877 28.4524 159.073 26.8972 158.656 22.4789C158.572 21.6794 158.572 21.343 158.572 20.8799V10.657C158.572 10.2361 158.614 9.47887 158.656 9.058C159.199 4.5145 162.835 3.0845 167.141 3.0845C171.404 3.0845 175.167 4.5145 175.585 9.058C175.669 9.81525 175.627 10.657 175.627 10.657V11.4565H169.523V10.1094C169.523 10.1094 169.523 9.52113 169.44 9.18313C169.314 8.63713 168.856 7.41675 167.016 7.41675C165.259 7.41675 164.759 8.59487 164.633 9.18475C164.549 9.52112 164.549 9.942 164.549 10.3206V21.4275C164.549 21.7216 164.549 22.058 164.591 22.3538C164.759 23.0265 165.384 24.1201 167.141 24.1201Z" fill="#515151"/>
</g>
<defs>
<clipPath id="clip0_6022_151460">
<rect width="169.565" height="26" fill="white" transform="translate(7 3)"/>
</clipPath>
</defs>
</svg>
