<svg width="59" height="32" viewBox="0 0 59 32" fill="none" xmlns="http://www.w3.org/2000/svg">
<g clip-path="url(#clip0_6025_151501)">
<path d="M29.2657 27.0656C29.2657 25.8584 30.2513 24.9195 31.4161 24.9195C32.5809 24.9195 33.5665 25.9031 33.5665 27.0656C33.5665 28.228 32.5809 29.2116 31.4161 29.2116C30.2513 29.2116 29.2657 28.2727 29.2657 27.0656ZM38.0913 27.0656C38.0913 25.8584 39.0769 24.9195 40.2417 24.9195C41.4513 24.9195 42.3921 25.9031 42.3921 27.0656C42.3921 28.228 41.4065 29.2116 40.2417 29.2116C39.0769 29.2563 38.0913 28.2727 38.0913 27.0656ZM17.6625 27.0656C17.6625 25.8584 18.6481 24.9195 19.8129 24.9195C21.0225 24.9195 21.9633 25.9031 21.9633 27.0656C21.9633 28.228 20.9777 29.2116 19.8129 29.2116C18.6033 29.2563 17.6625 28.2727 17.6625 27.0656ZM8.83692 27.0656C8.83692 25.8584 9.82252 24.9195 10.9873 24.9195C12.1969 24.9195 13.1377 25.9031 13.1377 27.0656C13.1377 28.228 12.1521 29.2116 10.9873 29.2116C9.82252 29.2563 8.83692 28.2727 8.83692 27.0656ZM26.6673 23.2653H24.7857V30.8212H26.6673V23.2653ZM13.1825 30.8212H15.0641V23.2653H13.1825V23.8912C12.5553 23.4441 11.7937 23.1759 10.9425 23.1759C8.79212 23.1759 7.04492 24.9195 7.04492 27.0656C7.04492 29.2563 8.79212 30.9553 10.9425 30.9553C11.7937 30.9553 12.5553 30.687 13.1825 30.2399V30.8212ZM42.4369 30.8212H44.3185V23.2653H42.4369V23.8912C41.8097 23.4441 41.0481 23.1759 40.1969 23.1759C38.0465 23.1759 36.2993 24.9195 36.2993 27.0656C36.2993 29.2563 38.0465 30.9553 40.1969 30.9553C41.0481 30.9553 41.8097 30.687 42.4369 30.2399V30.8212ZM44.9905 28.3621C45.0353 29.8823 46.3345 30.9553 48.5297 30.9553C50.3217 30.9553 51.8001 30.1952 51.8001 28.4963C51.8001 27.2891 51.1281 26.6185 49.6049 26.3055L48.3953 26.082C47.6337 25.9478 47.0961 25.769 47.0961 25.3219C47.0961 24.8301 47.6337 24.6066 48.2609 24.6066C49.2017 24.6066 49.6049 25.0984 49.6049 25.6349H51.4865C51.3969 24.1595 50.1873 23.1759 48.2609 23.1759C46.2897 23.1759 45.1249 24.2489 45.1249 25.6796C45.1249 27.3785 46.5137 27.6915 47.7233 27.9151L48.7089 28.0939C49.4257 28.228 49.7393 28.4516 49.7393 28.8539C49.7393 29.2116 49.3809 29.614 48.5297 29.614C47.2753 29.614 46.9169 28.9881 46.8721 28.4069H44.9905V28.3621ZM21.9633 20.6721V23.8465C21.3361 23.3994 20.5745 23.1311 19.7233 23.1311C17.5729 23.1311 15.8257 24.8748 15.8257 27.0209C15.8257 29.2116 17.5729 30.9106 19.7233 30.9106C20.5745 30.9106 21.3361 30.6423 21.9633 30.1952V30.7317H23.8449V20.6721H21.9633ZM33.6113 20.6721V23.8465C32.9841 23.3994 32.2225 23.1311 31.3713 23.1311C29.2209 23.1311 27.4737 24.8748 27.4737 27.0209C27.4737 29.2116 29.2209 30.9106 31.3713 30.9106C32.2225 30.9106 32.9841 30.6423 33.6113 30.1952V30.7317H35.4929V20.6721H33.6113ZM11.8833 18.4367L13.1825 20.6721H21.9633L18.4689 14.6364L11.8833 18.4367ZM26.6673 22.5499V20.6721H33.6113L26.2193 7.92996L19.6337 11.6855L24.7857 20.6721V22.5499H26.6673ZM36.3889 20.6721H45.2145L33.8353 1L27.2497 4.8003L36.3889 20.6721Z" fill="#515151"/>
</g>
<defs>
<clipPath id="clip0_6025_151501">
<rect width="44.8" height="30" fill="white" transform="translate(7 1)"/>
</clipPath>
</defs>
</svg>
