<svg width="125" height="32" viewBox="0 0 125 32" fill="none" xmlns="http://www.w3.org/2000/svg">
<g clip-path="url(#clip0_6018_151451)">
<path d="M51.1249 19.2171C51.1466 19.5661 51.0814 19.8933 50.9291 20.1769C50.6682 20.6568 50.4072 21.1367 50.1245 21.6384C49.8853 22.0746 49.7113 22.5327 49.6678 23.0344C49.6461 23.1653 49.6243 23.318 49.7113 23.4707C50.081 22.9254 50.429 22.4237 50.8204 21.9219C51.2771 21.3548 51.7555 20.7877 52.321 20.3296C52.6254 20.0678 52.9516 19.8497 53.3648 19.7406C53.9085 19.5879 54.3434 19.7624 54.6479 20.2423C54.9089 20.6568 54.9741 21.1149 54.9958 21.5947C55.0611 23.3398 53.8433 25.2376 52.234 25.9138C51.7555 26.1101 51.2553 26.1973 50.7552 26.1101C50.6029 26.0883 50.5377 26.1319 50.4942 26.2628C49.7983 27.9642 49.3199 29.7093 49.0806 31.5416C49.0154 31.9997 48.7979 32.1087 48.4065 31.847C47.7976 31.4107 47.4931 30.8217 47.4496 30.0801C47.4061 29.1203 47.6671 28.1823 47.9498 27.288C48.189 26.5682 48.4717 25.8483 48.7979 25.1503C48.8414 25.0631 48.8849 24.9758 48.8197 24.8449C48.363 23.9942 48.3847 23.0999 48.6674 22.2055C49.0371 21.0058 49.733 20.0024 50.6682 19.1517C50.7117 19.108 50.7769 19.0644 50.8204 19.0426C51.0161 18.999 51.1249 19.0208 51.1249 19.2171ZM11.7191 11.8224C14.655 11.9097 17.3734 12.8258 19.9395 14.1564C21.6793 15.0508 23.2233 16.1851 24.5499 17.6466C25.2458 18.41 25.8112 19.2389 26.2462 20.1769C26.9421 21.7474 26.7464 23.2307 25.7895 24.6268C25.0066 25.7611 23.8975 26.4155 22.6144 26.8299C20.6137 27.5061 18.5694 27.5498 16.5252 27.0481C16.3295 27.0044 16.3077 27.0481 16.286 27.2226C16.2425 27.7897 16.0903 27.9642 15.6336 28.0078C15.0899 28.0515 14.7637 27.8551 14.6332 27.3534C14.568 27.0917 14.5245 26.8081 14.5027 26.5245C14.481 26.35 14.4157 26.2628 14.2635 26.1755C12.9152 25.5429 11.7408 24.714 10.7187 23.6234C10.523 23.4052 10.3273 23.1653 10.1751 22.9035C9.78361 22.2273 9.89235 21.5947 10.523 21.1149C10.9362 20.7877 11.3929 20.5477 11.8713 20.3732C12.6542 20.0896 13.4589 19.8279 14.2853 19.7188C14.481 19.697 14.568 19.6097 14.568 19.4134C14.568 18.4755 14.6767 17.5593 14.8507 16.6431C14.8724 16.5341 14.9159 16.4032 14.9594 16.2941C15.0464 16.0542 15.1986 16.0106 15.4161 16.1633C15.6336 16.3378 15.7641 16.5559 15.8511 16.7958C16.1555 17.5593 16.199 18.3446 16.2208 19.1517C16.2425 19.4789 16.2425 19.4789 16.547 19.4789C17.917 19.4352 19.2436 19.6534 20.5267 20.1114C21.0269 20.286 21.4836 20.5695 21.8098 21.0058C22.2447 21.5729 22.2447 22.2055 21.788 22.729C21.2443 23.3616 20.6572 23.3834 20.0265 23.1653C19.9613 23.1435 19.896 23.0999 19.8743 23.0126C19.8743 22.9254 19.9395 22.8817 20.0047 22.8381C20.1787 22.729 20.3745 22.6636 20.5484 22.5109C20.8094 22.2491 20.7876 22.031 20.4397 21.8783C19.983 21.682 19.5046 21.5729 19.0261 21.4639C18.178 21.2894 17.3299 21.1585 16.46 21.1367C16.286 21.1367 16.2208 21.1585 16.2208 21.3548C16.2642 22.7072 16.286 24.0815 16.3077 25.4339C16.3077 25.5429 16.286 25.6302 16.46 25.652C18.4825 25.9792 20.4832 25.9574 22.3969 25.1503C23.1581 24.8231 23.854 24.365 24.2889 23.6234C24.8979 22.5982 24.8761 21.5511 24.3977 20.4823C23.7453 19.0208 22.6796 17.8865 21.4183 16.9267C18.9174 15.0508 16.112 13.9165 13.0457 13.3712C11.6321 13.1312 10.1968 13.044 8.7615 13.2185C8.39179 13.2621 8.04384 13.3275 7.65239 13.5239C7.84812 13.6111 7.9786 13.6111 8.10908 13.6329C8.23957 13.6547 8.37005 13.6765 8.47878 13.742C8.56577 13.8074 8.63101 13.8947 8.63101 14.0037C8.60926 14.1128 8.52228 14.1783 8.43529 14.2001C8.02209 14.2873 7.58715 14.2655 7.1957 14.091C6.95649 13.9819 6.93474 13.7638 6.99998 13.5457C7.1957 12.8913 7.63065 12.455 8.28306 12.2587C9.43566 11.9533 10.5665 11.8006 11.7191 11.8224ZM47.3626 19.2607C47.7976 19.2389 48.1238 19.4352 48.363 19.7624C48.4717 19.9151 48.5587 20.0678 48.6457 20.2205C48.7979 20.5259 48.7327 20.7004 48.3847 20.7658C47.7976 20.8749 47.2104 20.9185 46.6232 20.9622C46.3188 20.984 46.0143 21.0058 45.6881 21.0276C45.5793 21.0276 45.5141 21.0712 45.4706 21.1803C45.4271 21.3548 45.3619 21.5293 45.2966 21.682C45.2314 21.8347 45.2749 21.8783 45.4489 21.8565C45.9708 21.8129 46.4927 21.8129 47.0147 21.8565C47.2974 21.8783 47.3844 21.9656 47.3844 22.2273C47.3844 22.9472 47.3844 22.9908 46.7102 23.0344C46.1448 23.0562 45.5793 23.0999 45.0139 23.1217C44.8399 23.1217 44.753 23.1871 44.7312 23.3616C44.666 23.6452 44.579 23.9506 44.4702 24.2341C44.405 24.4305 44.4702 24.4741 44.6442 24.4305C45.4054 24.2778 46.1883 24.1251 46.9712 24.0378C47.2321 24.016 47.4061 24.0815 47.5801 24.256C47.841 24.5613 47.841 24.8667 47.5583 25.1285C46.9712 25.6738 46.297 26.0228 45.5576 26.3064C45.2966 26.4155 45.0357 26.4591 44.753 26.5245C43.7091 26.7863 42.7087 25.7393 42.8392 24.6704C42.9045 24.256 42.9697 23.8415 43.1219 23.4271C43.1872 23.2526 43.2089 23.0999 43.1437 22.9254C43.1002 22.8163 43.0784 22.6854 43.0567 22.5763C43.0132 22.1837 43.1002 22.0746 43.4916 22.031C43.6656 22.0092 43.7308 21.9438 43.7961 21.8129C43.9048 21.5511 44.0571 21.2894 44.1658 21.0276C44.1658 21.0058 44.1658 21.0058 44.1658 20.9622C43.7308 20.9185 43.3611 20.7658 43.1219 20.3514C42.9262 20.0024 42.9697 19.8715 43.3394 19.7843C44.144 19.5879 44.9704 19.4789 45.7968 19.3916C46.3188 19.2825 46.8407 19.2607 47.3626 19.2607ZM61.3025 17.6247C61.4982 18.7154 61.6505 19.8061 61.7157 20.9185C61.7157 21.1149 61.7809 21.1803 61.9767 21.1803C63.0423 21.1803 64.1079 21.1803 65.1735 21.1803C65.3475 21.1803 65.4997 21.2239 65.6302 21.3548V22.3364C65.5214 22.4891 65.3692 22.5327 65.1952 22.5327C64.1296 22.5327 63.0858 22.5327 62.0202 22.5327C61.8244 22.5327 61.8027 22.5763 61.8027 22.7727C61.8244 23.8197 61.7809 24.8449 61.6722 25.8701C61.6287 26.2628 61.5635 26.3282 61.1938 26.3282C61.0198 26.3282 60.8458 26.3282 60.6718 26.3282C60.3891 26.3282 60.2804 26.2192 60.3239 25.9356C60.4544 24.8885 60.4761 23.8415 60.4761 22.7945C60.4761 22.5982 60.4109 22.5545 60.2369 22.5545C59.193 22.5545 58.1709 22.5545 57.1271 22.5545C56.7574 22.5545 56.6704 22.4673 56.6704 22.0965C56.6704 21.9438 56.6704 21.7693 56.6704 21.6166C56.6704 21.3112 56.7574 21.2239 57.0618 21.2239C58.0839 21.2239 59.106 21.2239 60.1282 21.2239C60.3456 21.2239 60.4109 21.1803 60.3891 20.9404C60.3021 19.8933 60.1717 18.8245 59.9759 17.7992C59.9107 17.4502 59.9759 17.3412 60.3239 17.3412C60.5196 17.3412 60.6936 17.3412 60.8893 17.3412C61.1285 17.2757 61.259 17.363 61.3025 17.6247ZM28.2034 19.5007C28.4861 19.6316 28.5949 19.8933 28.6601 20.1551C28.8123 20.8313 28.8558 21.5511 28.8993 22.2491C28.9428 22.7508 28.9428 23.2744 28.9863 23.7979C29.0081 24.3868 29.0515 24.954 29.0081 25.5429C28.9863 25.9792 28.8123 26.2192 28.5079 26.2628C27.9859 26.3282 27.6162 26.1537 27.4858 25.7393C27.3988 25.4339 27.377 25.1285 27.3553 24.8231C27.29 23.318 27.3118 21.8347 27.5727 20.3514C27.6162 20.1114 27.6815 19.8715 27.7902 19.6534C27.8772 19.4571 28.0294 19.4134 28.2034 19.5007ZM33.7054 19.1953C34.4666 19.1953 35.206 19.2607 35.9019 19.5443C36.0759 19.6097 36.3151 19.6534 36.3151 19.8933C36.3151 20.1551 36.1629 20.3296 35.9236 20.4605C35.5974 20.635 35.2495 20.635 34.9015 20.6568C33.9881 20.7222 33.053 20.7004 32.1396 20.8095C31.7047 20.8531 31.2698 20.9185 30.8566 21.0494C30.7696 21.0712 30.6608 21.093 30.6608 21.2021C30.6608 21.333 30.7913 21.333 30.8783 21.3548C31.4872 21.4857 32.1179 21.5293 32.7486 21.5947C33.4227 21.682 34.1186 21.7693 34.7928 21.9219C36.4021 22.3146 36.4673 24.4087 35.6409 25.2157C35.1842 25.6738 34.6406 25.9138 34.0099 26.0228C32.7268 26.2628 31.5307 26.001 30.4869 25.2157C30.2041 24.9976 29.9432 24.7359 29.8127 24.3868C29.617 23.8633 29.8344 23.3398 30.3346 23.0562C30.7043 22.8381 31.1393 22.7727 31.5525 22.7727C32.4223 22.7945 33.2487 22.9254 34.0316 23.2962C34.1621 23.3616 34.3143 23.4052 34.2926 23.5798C34.2926 23.7324 34.1621 23.8197 34.0316 23.8851C33.4445 24.1687 32.8573 24.2996 32.2266 24.016C31.8787 23.8633 31.509 23.6888 31.1393 23.6016C30.9435 23.5579 30.7696 23.5798 30.5956 23.6452C30.4434 23.7106 30.3346 23.8197 30.3129 23.9942C30.2911 24.1469 30.4216 24.256 30.5303 24.3214C30.7913 24.4741 31.0958 24.5613 31.3785 24.5832C32.4223 24.6486 33.4445 24.5395 34.4013 24.0596C34.4883 24.016 34.5536 23.9724 34.6406 23.9288C34.8145 23.8197 35.032 23.7106 34.9885 23.4489C34.9668 23.2089 34.7493 23.0999 34.5536 23.0126C33.9664 22.7508 33.3357 22.6854 32.7051 22.5982C31.9004 22.5109 31.0958 22.4891 30.2911 22.3582C29.4647 22.2273 29.182 21.7256 29.443 20.9185C29.5735 20.4823 29.8779 20.1769 30.2476 19.9369C30.8783 19.5443 31.596 19.3698 32.3136 19.2607C32.792 19.2171 33.2487 19.1735 33.7054 19.1953ZM40.5558 18.3446C40.795 18.4755 40.9907 18.6718 41.1647 18.8681C41.8171 19.5879 42.1651 20.4386 42.339 21.3766C42.5565 22.5109 42.5565 23.6452 42.1868 24.7577C42.1216 24.9322 42.0346 25.1067 41.9041 25.2376C41.4474 25.7829 40.8167 25.8047 40.3383 25.303C39.8599 24.8013 39.5119 24.1905 39.1857 23.5798C38.9465 23.1435 38.7073 22.7072 38.4898 22.271C38.4463 22.2055 38.4246 22.1183 38.3376 22.1183C38.2506 22.1401 38.2723 22.2273 38.2506 22.3146C38.1853 22.8381 38.1636 23.3834 38.1636 23.9288C38.1418 24.4523 38.1418 24.9976 38.0114 25.4993C37.9244 25.8483 37.7504 26.0228 37.4459 26.0446C37.1632 26.0665 36.8805 25.892 36.7718 25.5866C36.5978 25.1285 36.6195 24.6486 36.6195 24.1905C36.6413 23.0344 36.7935 21.9001 37.1197 20.7877C37.185 20.5477 37.2937 20.286 37.4242 20.0678C37.7069 19.6534 38.0114 19.6097 38.3811 19.9806C38.9682 20.5913 39.4249 21.2894 39.8599 22.0092C40.1426 22.4673 40.447 22.9254 40.7297 23.3834C40.7732 23.4707 40.8385 23.5798 40.9472 23.5579C41.0777 23.5143 41.0342 23.3834 41.0342 23.318C41.0125 22.5763 40.8385 21.8565 40.6645 21.1585C40.5123 20.4605 40.3165 19.7843 40.1208 19.108C40.0773 18.9335 40.0338 18.759 40.0556 18.5845C40.1426 18.2573 40.2948 18.1919 40.5558 18.3446ZM14.3505 21.2239C13.8068 21.2676 13.2849 21.3112 12.763 21.3984C12.1105 21.5075 11.4581 21.6166 10.8492 21.9001C10.436 22.0965 10.3925 22.3146 10.697 22.6854C10.7622 22.7508 10.8275 22.8381 10.8927 22.9035C11.5016 23.5361 12.241 24.016 13.0022 24.4523C13.4806 24.7359 13.9808 24.954 14.5027 25.1067C14.5027 25.0849 14.5245 25.0849 14.5245 25.0631C14.5245 23.8197 14.5245 22.5763 14.5245 21.333C14.5027 21.2021 14.4375 21.2239 14.3505 21.2239ZM53.4735 21.333L52.3644 22.6636C51.973 23.2089 51.6033 23.7761 51.2771 24.4087C51.6468 24.365 51.973 24.2778 52.2775 24.1251C53.3431 23.6234 53.9955 22.8163 54.1042 21.6166C54.126 21.4202 54.1695 21.1585 53.9302 21.0712C53.7563 21.0058 53.604 21.2021 53.4735 21.333ZM29.7257 13.1094C30.2259 13.1094 30.6608 13.2839 31.0088 13.6765C31.074 13.7638 31.161 13.7856 31.248 13.8074C32.1396 14.0037 32.5746 14.7672 32.2701 15.6397C32.1831 15.8797 32.0744 16.1196 31.9004 16.3159C31.074 17.2539 30.1172 17.9301 28.8776 18.2137C28.3991 18.3228 27.899 18.301 27.4423 18.1483C27.3118 18.1046 27.2465 18.1264 27.203 18.2573V18.2791C27.0943 18.4536 27.0073 18.6936 26.7464 18.65C26.4854 18.6281 26.3767 18.41 26.2897 18.2137C26.2462 18.1264 26.2027 18.0174 26.2244 17.9301C26.2679 17.5811 26.1157 17.2975 25.92 17.0358C25.7677 16.7958 25.7025 16.5123 25.7025 16.2287C25.7025 15.8361 25.8112 15.4652 26.0287 15.138C26.9421 13.8511 28.1382 13.1312 29.7257 13.1094ZM30.6826 14.68C30.4434 14.7236 30.2041 14.8108 29.9867 14.9635C29.4647 15.2907 28.9863 15.6834 28.5514 16.1414C28.3339 16.3814 28.1599 16.6213 27.9642 16.8831C27.899 16.9922 27.899 17.0358 28.0294 17.0358H28.4644C29.356 17.0358 30.1606 16.7522 30.8566 16.2069C31.0958 16.0106 31.3132 15.7924 31.422 15.487C31.5742 14.9635 31.2045 14.5709 30.6826 14.68ZM28.4861 14.5491C27.812 14.5273 26.7898 15.3125 26.6376 15.9451C26.5941 16.1633 26.6159 16.2723 26.7464 16.4686C27.2248 15.7488 27.812 15.1162 28.4861 14.5491Z" fill="#515151"/>
<g style="mix-blend-mode:luminosity">
<path d="M37.7285 0C37.0543 0 36.3801 0.0436261 35.7495 0.130879C34.2707 0.327198 32.8136 0.523518 31.3783 0.916156C29.9213 1.30879 28.4859 1.83231 27.1376 2.50852C24.3105 3.88275 21.7661 5.75869 19.6566 8.07089C18.7867 9.00886 18.0256 10.0123 17.3079 11.0593C17.1557 11.2993 17.2209 11.4738 17.4819 11.561C17.6341 11.6264 17.8081 11.6701 17.9603 11.7355C18.2648 11.8228 18.3518 11.801 18.5258 11.5392C18.939 10.9502 19.3304 10.3395 19.8306 9.79414C20.3525 9.22699 20.8745 8.63804 21.3964 8.07089C22.0053 7.50375 22.636 6.95842 23.2666 6.4349C25.7023 4.47171 28.5729 3.01023 31.574 2.15951C34.7491 1.26517 38.0982 1.06885 41.3385 1.54874C43.4045 1.85412 45.4269 2.44308 47.3624 3.2938C49.5371 4.25358 51.5814 5.56237 53.3864 7.13293C55.6481 9.09612 57.4531 11.4956 58.8014 14.1786C58.9536 14.484 59.1059 14.8112 59.2581 15.1166C59.6061 15.9018 59.4756 15.9018 60.1932 15.88C60.2802 15.88 60.3672 15.88 60.4759 15.88C60.7369 15.88 60.9109 15.771 60.8239 15.4874C60.302 14.0913 59.5191 12.7389 58.7144 11.4738C57.888 10.1868 56.9529 8.98705 55.909 7.87458L55.8438 7.80914C54.191 6.06408 52.299 4.51534 50.2113 3.33742C49.3849 2.83572 48.515 2.42127 47.6234 2.05044C46.9275 1.70143 46.1881 1.46149 45.4487 1.22154C43.9046 0.719836 42.2954 0.370825 40.6643 0.196319C39.7292 0.0872532 38.7506 0.0218129 37.7937 0.0218129C37.7502 -3.33168e-07 37.7285 0 37.7285 0Z" fill="url(#paint0_radial_6018_151451)"/>
</g>
<path d="M107.319 17.7339C108.537 17.7339 109.538 18.192 110.19 19.13H110.212V17.9739H111.756V26.2629H110.212V24.9759H110.19C109.603 25.9575 108.559 26.481 107.385 26.481C104.971 26.481 102.992 24.6487 102.992 22.2711C102.992 19.588 104.884 17.7339 107.319 17.7339ZM82.6364 17.7339C84.9198 17.7339 87.0728 19.5226 87.0293 22.162C87.0075 24.4306 85.0721 26.5465 82.3537 26.4592C80.0485 26.3938 78.0912 24.3869 78.113 22.0747C78.1565 19.588 80.1355 17.7339 82.6364 17.7339ZM95.141 17.7339C96.511 17.7339 97.6419 18.6937 97.6854 20.1552H96.1413C96.0761 19.5662 95.7281 19.1518 95.0757 19.1518C94.4886 19.1518 94.0971 19.5662 94.0971 20.0461C94.0971 20.7441 94.8148 20.9623 95.6411 21.224C96.8155 21.573 97.8811 22.2929 97.8811 23.8198C97.8811 25.4122 96.7068 26.4592 95.0975 26.4592C93.5969 26.4592 92.1834 25.434 92.1834 23.5362H93.7274C93.7926 24.5396 94.3146 25.0413 95.1192 25.0413C95.8369 25.0413 96.3153 24.5833 96.3153 23.9071C96.3153 23.3399 95.8804 22.9691 94.9235 22.6419C92.901 21.9875 92.5531 21.115 92.5531 20.177C92.5531 18.7155 93.7926 17.7339 95.141 17.7339ZM69.3489 15.1818C70.197 15.1818 70.8929 15.8798 70.8929 16.7305V18.8464H70.9147C71.4149 18.1047 72.1978 17.7339 73.2199 17.7339C75.1989 17.7339 76.6559 18.9991 76.6559 21.2677V26.2629H75.1119V21.7475C75.1119 19.9589 74.416 19.1518 73.0459 19.1518C71.6976 19.1518 70.8712 20.1334 70.8712 21.7475V26.2629H69.3271V15.1818H69.3489ZM90.3566 15.1818V17.9739H91.7049V19.3917H90.3566V26.2629C89.5085 26.2629 88.8126 25.5649 88.8126 24.7141V19.3917H88.1819V17.9739H88.8126V15.1818H90.3566ZM101.143 15.1818V17.9739H102.491V19.3917H101.143V26.2629C100.295 26.2629 99.5991 25.5649 99.5991 24.7141V19.3917H98.9685V17.9739H99.5991V15.1818H101.143ZM117.345 17.7339V19.3263C115.996 19.3699 115.322 20.1988 115.322 21.5949V24.6923C115.322 25.543 114.626 26.2411 113.778 26.2411V17.9739H115.235V18.7155H115.257C115.605 18.1702 116.257 17.7994 117.345 17.7339ZM107.363 19.1736C105.732 19.1736 104.405 20.6569 104.557 22.4019C104.688 23.8416 105.862 25.0195 107.298 25.0413C108.929 25.085 110.233 23.7107 110.233 22.1184C110.233 20.5042 109.081 19.1736 107.363 19.1736ZM82.5711 19.1736C80.7879 19.1736 79.2873 20.8968 79.7658 22.8382C80.092 24.147 81.2881 25.085 82.6146 25.0632C84.2022 25.0195 85.4853 23.7544 85.4853 22.0966C85.4853 20.4606 84.2022 19.1736 82.5711 19.1736Z" fill="#515151"/>
</g>
<defs>
<radialGradient id="paint0_radial_6018_151451" cx="0" cy="0" r="1" gradientUnits="userSpaceOnUse" gradientTransform="translate(60.0533 15.8766) scale(41.5964 41.724)">
<stop stop-color="#01147B"/>
<stop offset="0.03" stop-color="#011098"/>
<stop offset="0.06" stop-color="#010ABD"/>
<stop offset="0.1" stop-color="#0006DA"/>
<stop offset="0.14" stop-color="#0003EE"/>
<stop offset="0.18" stop-color="#0001FB"/>
<stop offset="0.22" stop-color="#0000FF"/>
<stop offset="1" stop-color="#00FFFF" stop-opacity="0"/>
</radialGradient>
<clipPath id="clip0_6018_151451">
<rect width="110.345" height="32" fill="white" transform="translate(7)"/>
</clipPath>
</defs>
</svg>
