<svg width="81" height="32" viewBox="0 0 81 32" fill="none" xmlns="http://www.w3.org/2000/svg">
<path d="M16.4381 3.836C11.3333 3.836 7 7.47429 7 13.0695C7 18.1042 10.8571 22.0939 16.381 22.0939C21.4762 22.0939 25.819 18.4557 25.819 12.8605C25.819 7.83527 21.9619 3.836 16.4381 3.836ZM16.4381 21.011C13.1143 21.011 10.7333 17.6197 10.7333 12.946C10.7333 8.47173 12.9905 4.92844 16.3905 4.92844C19.7143 4.92844 22.0952 8.31974 22.0952 12.9935C22.0857 17.4677 19.8286 21.011 16.4381 21.011ZM69.3333 10.7611V11.5211L70.3524 11.7205C70.7048 11.7965 70.8095 12.072 70.581 12.6325L68.2381 18.2562C68.1333 18.4842 68.0095 18.4842 67.9333 18.2562L65.7524 12.642C65.5238 12.0625 65.6476 11.806 66.0095 11.73L67.0191 11.5306V10.7706H57.9905V11.5306L59.0095 11.73C59.3619 11.806 59.4952 12.0815 59.2667 12.642L57.0095 18.5601C56.9048 18.7881 56.781 18.7881 56.7048 18.5601L54.4191 12.642C54.2191 12.0625 54.3143 11.806 54.6762 11.73L55.6857 11.5306V10.7706H49.9524V11.5496L50.5143 11.673C50.8952 11.749 51.1238 11.9485 51.2762 12.3095L55.1524 21.8185H56.9048L60.781 12.3095C60.981 11.806 61.2095 11.5971 61.6191 11.5971H61.7714C62.1048 11.5971 62.3524 11.7205 62.5619 12.205L66.6191 22.0749L65.5333 24.6588C64.819 26.3782 64.2952 26.6822 63.6286 26.6822C63.3524 26.6822 63.0476 26.6347 62.7429 26.6347C61.9524 26.6347 61.4762 27.1952 61.4762 27.7936C61.4762 28.4776 62.0381 28.962 62.9238 28.962C64.1905 28.962 65.4381 27.9456 66.4762 25.5232L72 12.5945C72.2571 12.015 72.581 11.7585 73.1143 11.654L73.6667 11.5496V10.7611H69.3333ZM33.781 20.8305L29.5429 21.3625C28.1524 21.543 27.7143 21.087 27.7143 20.3745C27.7143 19.5386 28.6286 18.8831 31.8 18.8831H31.8476C34.1524 18.8831 36.8667 17.4962 36.8667 14.4849C36.8667 13.5254 36.5143 12.642 35.8476 11.9295C35.619 11.4356 35.5143 10.9036 35.5429 10.3621C35.5429 8.13925 37.0667 6.87582 38.6381 6.87582C39.2952 6.87582 39.5048 6.98032 39.5048 7.43629C39.5048 7.55978 39.4762 7.66428 39.4762 7.81627C39.4762 8.60472 40.1333 9.33618 41.0762 9.33618C42.0381 9.33618 42.6476 8.57623 42.6476 7.74027C42.6476 6.47685 41.5048 5.5364 39.4 5.5364C36.5048 5.5364 34.2762 7.40779 34.2762 10.2671C34.2762 10.4951 34.3048 10.6756 34.3048 10.8466C33.5524 10.5426 32.7524 10.3811 31.9429 10.3906C29.6571 10.3906 26.9238 11.7775 26.9238 14.7889C26.9238 16.1758 27.7143 17.4677 29.0762 18.2277C27.0476 18.5032 25.8857 19.5956 25.8857 21.2865C25.8857 23.0059 27.2571 24.2503 29.819 23.9463L33.5238 23.4904C35.3714 23.2624 35.981 23.9178 35.981 24.8773C35.981 26.5492 34.4095 27.8886 31.8952 27.8886C29.8952 27.8886 29.1524 27.1762 29.1524 26.1692L29.181 25.6657C29.181 25.0578 28.8 24.6303 28.1905 24.6018C27.4762 24.6018 27.0476 25.1053 27.0476 25.8367C27.0476 27.5086 28.6476 29 31.9143 29C35.5905 29 37.9238 26.6252 37.9238 23.8893C37.9333 21.714 36.1905 20.5265 33.781 20.8305ZM31.8762 11.2931C33.0667 11.2931 34.0286 12.6325 34.0286 14.6844C34.0286 16.4513 33.219 17.9712 31.9524 17.9712C30.7333 17.9712 29.7714 16.6318 29.7714 14.5799C29.7714 12.8415 30.581 11.2931 31.8762 11.2931Z" fill="#515151"/>
<path d="M48.9712 20.5075V3L44.5045 4.13993V4.6719L45.7712 5.08038C45.9712 5.15638 46.0473 5.30837 46.0473 5.50785V20.4315C46.0473 20.707 45.8188 20.916 45.4854 20.916L44.3521 20.935L43.1521 20.916C42.8188 20.916 42.5902 20.7165 42.5902 20.4315V10.3336L38.1235 11.4735V12.0055L39.3902 12.414C39.5902 12.49 39.6664 12.6419 39.6664 12.8414V20.5075C39.6664 20.7355 39.5426 20.859 39.3616 20.8875L38.3235 21.011V21.8184H50.495V21.011L49.2569 20.8875C49.095 20.859 48.9712 20.7355 48.9712 20.5075Z" fill="#515151"/>
</svg>
