<svg width="124" height="32" viewBox="0 0 124 32" fill="none" xmlns="http://www.w3.org/2000/svg">
<g clip-path="url(#clip0_6025_151472)">
<path fill-rule="evenodd" clip-rule="evenodd" d="M20.0283 19.5711C14.4897 19.5084 10.9022 16.8771 10.9022 12.8988C10.9022 8.92048 14.4897 6.28916 20.0283 6.22651C25.5669 6.28916 29.1544 8.92048 29.1544 12.8988C29.1544 16.8771 25.5669 19.5398 20.0283 19.5711ZM20.2171 3C20.2171 3 20.0912 3 20.0597 3C19.9968 3 19.9024 3 19.9024 3C12.2868 3.1253 7 7.19759 7 12.8988C7 18.6 12.2868 22.6723 19.8709 22.7976C19.8709 22.7976 19.9968 22.7976 20.0283 22.7976C20.0912 22.7976 20.1856 22.7976 20.1856 22.7976C27.7697 22.7036 33.0565 18.6 33.0565 12.8988C33.0565 7.19759 27.7697 3.1253 20.2171 3Z" fill="#515151"/>
<path fill-rule="evenodd" clip-rule="evenodd" d="M103.831 19.5711C98.2924 19.5084 94.7049 16.8771 94.7049 12.8988C94.7049 8.92048 98.2924 6.28916 103.831 6.22651C109.37 6.28916 112.957 8.92048 112.957 12.8988C112.957 16.8771 109.37 19.5398 103.831 19.5711ZM103.988 3C103.988 3 103.862 3 103.831 3C103.768 3 103.674 3 103.674 3C96.0896 3.1253 90.8027 7.19759 90.8027 12.8988C90.8027 18.6 96.0896 22.6723 103.674 22.7976C103.674 22.7976 103.8 22.7976 103.831 22.7976C103.894 22.7976 103.988 22.7976 103.988 22.7976C111.572 22.6723 116.859 18.6 116.859 12.8988C116.859 7.19759 111.572 3.1253 103.988 3Z" fill="#515151"/>
<path fill-rule="evenodd" clip-rule="evenodd" d="M75.9492 19.5711C70.4106 19.5084 66.8231 16.8771 66.8231 12.8988C66.8231 8.92048 70.4106 6.28916 75.9492 6.22651C81.4878 6.28916 85.0753 8.92048 85.0753 12.8988C85.0753 16.8771 81.4878 19.5398 75.9492 19.5711ZM76.1065 3C76.1065 3 75.9806 3 75.9492 3C75.8862 3 75.7918 3 75.7918 3C72.1729 3.06265 69.0889 4.00241 66.8546 5.6V3.93976H62.9209V29H66.8546V20.1976C69.0889 21.7952 72.2043 22.7663 75.7918 22.7976C75.7918 22.7976 75.9177 22.7976 75.9492 22.7976C76.0121 22.7976 76.1065 22.7976 76.1065 22.7976C83.6906 22.6723 88.9774 18.6 88.9774 12.8988C88.9774 7.19759 83.6906 3.1253 76.1065 3Z" fill="#515151"/>
<path fill-rule="evenodd" clip-rule="evenodd" d="M48.0046 19.5711C42.466 19.5084 38.8785 16.8771 38.8785 12.8988C38.8785 8.92048 42.466 6.28916 48.0046 6.22651C53.5432 6.28916 57.1306 8.92048 57.1306 12.8988C57.1306 16.8771 53.5432 19.5398 48.0046 19.5711ZM48.1619 3C48.1619 3 48.036 3 48.0046 3C47.9416 3 47.8472 3 47.8472 3C44.2283 3.06265 41.1443 4.00241 38.9099 5.6V3.93976H34.9448V29H38.8785V20.1976C41.1128 21.7952 44.2283 22.7663 47.8157 22.7976C47.8157 22.7976 47.9416 22.7976 47.9731 22.7976C48.036 22.7976 48.1304 22.7976 48.1304 22.7976C55.7145 22.6723 61.0014 18.6 61.0014 12.8988C61.0014 7.19759 55.746 3.1253 48.1619 3Z" fill="#515151"/>
</g>
<defs>
<clipPath id="clip0_6025_151472">
<rect width="109.859" height="26" fill="white" transform="translate(7 3)"/>
</clipPath>
</defs>
</svg>
