<svg width="111" height="32" viewBox="0 0 111 32" fill="none" xmlns="http://www.w3.org/2000/svg">
<g clip-path="url(#clip0_6025_151508)">
<path d="M16.5223 30C16.5046 29.9824 16.4868 29.9647 16.4691 29.947C16.1322 29.523 14.0398 26.9085 11.8942 23.5697C11.2558 22.5098 10.8303 21.6618 10.9189 21.4499C11.1317 20.8846 14.8555 20.5842 15.9903 21.0965C16.345 21.2555 16.3273 21.4499 16.3273 21.5735C16.3273 22.0858 16.3095 23.4637 16.3095 23.4637C16.3095 23.7464 16.54 23.976 16.8238 23.976C17.1075 23.976 17.338 23.7464 17.338 23.4637V20.0366C17.338 19.7363 17.0188 19.6656 16.9479 19.648C16.345 19.648 15.1392 19.648 13.827 19.648C10.9544 19.648 10.2983 19.7716 9.81954 19.4536C8.75561 18.7647 7.03559 14.1186 6.98239 11.5041C6.92919 7.812 9.12798 4.61453 12.2134 3.04229C13.5078 2.38866 14.9619 2.03535 16.5046 2.03535C21.4164 2.00002 25.4416 5.67446 25.9736 10.4088C25.9736 10.4088 25.9736 10.4088 25.9736 10.4265C26.0799 11.5748 19.7496 11.8221 18.4906 11.4865C18.2955 11.4335 18.2423 11.2391 18.2423 11.1508C18.2423 10.2852 18.2423 7.82967 18.2423 7.82967C18.2423 7.54702 18.0118 7.31737 17.7281 7.31737C17.4444 7.31737 17.2139 7.54702 17.2139 7.82967L17.2316 12.3344C17.2316 12.6171 17.4798 12.6877 17.5508 12.7054C18.2601 12.7054 19.9269 12.7054 21.4873 12.7054C23.5797 12.7054 24.4663 12.9527 25.0515 13.3943C25.4416 13.6947 25.5834 14.26 25.4593 14.9842C24.2535 21.5559 16.806 29.6644 16.5223 30ZM36.7193 14.7193C38.5989 15.5142 39.7692 16.4152 39.7692 18.3584C39.7692 20.3546 38.2442 21.6442 35.9036 21.6442C34.0062 21.6442 32.4813 20.7786 31.7188 19.2947L31.5947 19.0473L33.8289 17.7577L33.9708 18.0051C34.4673 18.8177 35.0347 19.171 35.8504 19.171C36.5597 19.171 37.0207 18.853 37.0207 18.3937C37.0207 17.8814 36.6838 17.6871 35.6199 17.2278L35.0879 16.9981C33.6516 16.3798 32.3217 15.5495 32.3217 13.4827C32.3217 11.6454 33.7403 10.3559 35.7795 10.3559C37.3222 10.3559 38.3684 10.9565 39.0954 12.2284L39.2372 12.4581L37.0739 13.8536L36.932 13.5887C36.5774 12.935 36.2228 12.8114 35.7972 12.8114C35.3361 12.8114 35.0524 13.0587 35.0524 13.4473C35.0524 13.889 35.2652 14.0833 36.205 14.4896L36.7193 14.7193ZM52.5541 15.0902L54.1323 10.7092H56.8453L52.8201 21.8385H52.2172L49.7879 16.6095C49.6815 16.3622 49.5574 16.0795 49.451 15.7969C49.3446 16.0618 49.2204 16.3622 49.1141 16.6095L46.5961 21.8208H45.9932L41.9148 10.6915H44.8051L46.401 15.0726C46.5074 15.3552 46.6138 15.6909 46.7025 16.0088C46.8089 15.6909 46.933 15.3376 47.0749 15.0372L49.1672 10.5855H49.7524L51.8803 15.0372C52.0221 15.3199 52.1463 15.6732 52.2526 16.0088C52.359 15.7085 52.4654 15.3729 52.5541 15.0902ZM60.0193 21.5029V10.4795H62.7501V21.5029H60.0193ZM71.7226 17.7931V15.3199H76.794V20.2663L76.6876 20.3546C76.1024 20.8316 74.5597 21.6265 72.4851 21.6265C68.9564 21.6265 66.5093 19.2947 66.5093 15.9735C66.5093 12.7054 68.8854 10.3382 72.1482 10.3382C73.9391 10.3382 75.269 10.8505 76.1734 11.8751L76.3507 12.0694L74.4888 13.9066L74.2937 13.6947C73.7795 13.1647 73.2298 12.829 72.1482 12.829C70.4813 12.829 69.311 14.1186 69.311 15.9559C69.311 17.8814 70.5523 19.118 72.4851 19.118C73.1234 19.118 73.7972 19.012 74.2406 18.8353V17.7754H71.7226V17.7931ZM85.5891 17.7931V15.3199H90.6606V20.2663L90.5542 20.3546C89.969 20.8316 88.4263 21.6265 86.3516 21.6265C82.8229 21.6265 80.3759 19.2947 80.3759 15.9735C80.3759 12.7054 82.752 10.3382 86.0147 10.3382C87.8057 10.3382 89.1356 10.8505 90.0399 11.8751L90.2172 12.0694L88.3554 13.9066L88.1603 13.6947C87.6461 13.1647 87.0964 12.829 86.0147 12.829C84.3479 12.829 83.1776 14.1186 83.1776 15.9559C83.1776 17.8814 84.4188 19.118 86.3694 19.118C87.0077 19.118 87.6815 19.012 88.1249 18.8353V17.7754H85.5891V17.7931ZM100.697 10.4795H103.552L99.6153 17.8107V21.5029H96.8668V17.9697L92.6998 10.4795H95.7497L97.6825 13.995C97.8953 14.3836 98.1081 14.8782 98.2677 15.3022C98.4272 14.8959 98.64 14.4013 98.8351 14.0126L100.697 10.4795Z" fill="#515151"/>
</g>
<defs>
<clipPath id="clip0_6025_151508">
<rect width="96.5517" height="28" fill="white" transform="translate(7 2)"/>
</clipPath>
</defs>
</svg>
